<?xml version="1.0" encoding="utf-8"?>
<!-- Generator: Adobe Illustrator 23.0.5, SVG Export Plug-In . SVG Version: 6.00 Build 0)  -->
<svg version="1.1" id="Layer_5" xmlns="http://www.w3.org/2000/svg" x="0px" y="0px"
     viewBox="0 0 512 512" style="enable-background:new 0 0 512 512;" xml:space="preserve">
<style type="text/css">
	.st0{fill:#4E5DE4;}
</style>
<path class="st0" d="M416,456h16v16h-16V456z"/>
<path class="st0" d="M384,456h16v16h-16V456z"/>
<path class="st0" d="M352,456h16v16h-16V456z"/>
<path class="st0" d="M352,424h80v16h-80V424z"/>
<path class="st0" d="M504,96c0-13.2-10.8-24-24-24V56c13.2,0,24-10.8,24-24S493.2,8,480,8H352c-13.2,0-24,10.8-24,24s10.8,24,24,24
	v16c-10.4,0-19.2,6.7-22.5,16H320c-22.1,0-40,17.9-40,40v168h-16V128c0-22.1-17.9-40-40-40h-8V32c0-13.2-10.8-24-24-24H32
	C18.8,8,8,18.8,8,32v112c0,13.2,10.8,24,24,24h160c13.2,0,24-10.8,24-24v-40h8c13.2,0,24,10.8,24,24v168h-16v-40
	c0-22.1-17.9-40-40-40h-24.8c-3.7-18.2-19.9-32-39.2-32H64c-22.1,0-40,17.9-40,40s17.9,40,40,40h104v-32h24c13.2,0,24,10.8,24,24v40
	H51.1l-40,80H48v128h416V376h36.9l-40-80H328v-24c0-13.2,10.8-24,24-24h8.8c3.7,18.2,19.9,32,39.2,32c22.1,0,40-17.9,40-40
	s-17.9-40-40-40c-19.3,0-35.5,13.8-39.2,32H352c-22.1,0-40,17.9-40,40v24h-16V128c0-13.2,10.8-24,24-24h9.5c3.3,9.3,12.1,16,22.5,16
	v16c-13.2,0-24,10.8-24,24s10.8,24,24,24h128c13.2,0,24-10.8,24-24s-10.8-24-24-24v-16C493.2,120,504,109.2,504,96z M200,144
	c0,4.4-3.6,8-8,8H32c-4.4,0-8-3.6-8-8V32c0-4.4,3.6-8,8-8h160c4.4,0,8,3.6,8,8V144z M152,248H64c-13.2,0-24-10.8-24-24
	s10.8-24,24-24h64c13.2,0,24,10.8,24,24V248z M400,216c13.2,0,24,10.8,24,24s-10.8,24-24,24s-24-10.8-24-24S386.8,216,400,216z
	 M60.9,312h118.1l-24,48H36.9L60.9,312z M64,376h100.9l27.1-54.1V488H64V376z M448,488H208V321.9l27.1,54.1H448V488z M475.1,360
	H244.9l-24-48h230.1L475.1,360z M344,32c0-4.4,3.6-8,8-8h128c4.4,0,8,3.6,8,8s-3.6,8-8,8H352C347.6,40,344,36.4,344,32z M368,56h96
	v16h-96V56z M344,96c0-4.4,3.6-8,8-8h128c4.4,0,8,3.6,8,8s-3.6,8-8,8H352C347.6,104,344,100.4,344,96z M488,160c0,4.4-3.6,8-8,8H352
	c-4.4,0-8-3.6-8-8s3.6-8,8-8h128C484.4,152,488,155.6,488,160z M464,136h-96v-16h96V136z"/>
<path class="st0" d="M136,56h-32v16H72v16H40v48h144V40h-48V56z M104,88v32H88V88H104z M56,104h16v16H56V104z M120,120V72h16v48H120
	z M152,56h16v64h-16V56z"/>
<path class="st0" d="M56,216h16v16H56V216z"/>
<path class="st0" d="M88,216h16v16H88V216z"/>
<path class="st0" d="M120,216h16v16h-16V216z"/>
<path class="st0" d="M424,328h16v16h-16V328z"/>
<path class="st0" d="M392,328h16v16h-16V328z"/>
<path class="st0" d="M360,328h16v16h-16V328z"/>
<path class="st0" d="M80,392h16v16H80V392z"/>
<path class="st0" d="M80,424h16v16H80V424z"/>
<path class="st0" d="M80,456h16v16H80V456z"/>
</svg>
