<?xml version="1.0" encoding="utf-8"?>
<!-- Generator: Adobe Illustrator 23.0.5, SVG Export Plug-In . SVG Version: 6.00 Build 0)  -->
<svg version="1.1" id="Layer_1" xmlns="http://www.w3.org/2000/svg" x="0px" y="0px"
     viewBox="0 0 512 512" style="enable-background:new 0 0 512 512;" xml:space="preserve">
<style type="text/css">
	.st0{fill:#FFFFFF;}
</style>
<g>
	<g>
		<g>
			<path class="st0" d="M490.6,395.4c-12.2-12.2-28.5-19.2-45.4-19.9l-19.4-19.4c11.1-18.1,19.2-37.7,24.2-58.3h50.1V201h-50.1
				c-5-20.6-13.1-40.1-24.2-58.3l35.4-35.4l-68.5-68.5l-35.4,35.4c-18.1-11.1-37.7-19.2-58.3-24.2V0h-96.8v50.1
				c-20.6,5-40.1,13.1-58.3,24.2l-35.4-35.4l-68.5,68.5l35.4,35.4c-11.1,18.1-19.2,37.7-24.2,58.3H1.3v96.8h50.1
				c5,20.6,13.1,40.1,24.2,58.3l-35.4,35.4l68.5,68.5l35.4-35.4c18.1,11.1,37.7,19.2,58.3,24.2v50.1h96.8v-50.1
				c20.6-5,40.1-13.1,58.3-24.2l16.7,16.7c-0.6,18.6,6.4,37.2,19.9,50.7c13.1,13.1,30.5,20,48.3,20c8.7,0,17.4-1.7,25.8-5.1
				l10.5-4.3l-44.5-44.5l4.8-17.9l17.9-4.8l44.5,44.5l4.3-10.5C516,444,510.1,414.9,490.6,395.4z M354.4,408.8
				c-19.7,12.8-41.3,21.8-64.3,26.6l-6,1.3v47.2h-66.9v-47.2l-6-1.3c-22.9-4.8-44.6-13.8-64.3-26.6l-5.1-3.3l-33.4,33.4l-47.3-47.3
				l33.4-33.4l-3.3-5.1c-12.8-19.7-21.8-41.3-26.6-64.3l-1.3-6H16.3V216h47.2l1.3-6c4.8-22.9,13.8-44.6,26.6-64.3l3.3-5.1
				l-33.4-33.4L108.6,60L142,93.4l5.1-3.3c19.7-12.8,41.3-21.8,64.3-26.6l6-1.3V15h66.9v47.2l6,1.3c22.9,4.8,44.6,13.8,64.3,26.6
				l5.1,3.3L392.9,60l47.3,47.3l-33.4,33.4l3.3,5.1c12.8,19.7,21.8,41.3,26.6,64.3l1.3,6h47.2v66.9H438l-1.3,6
				c-4.8,22.9-13.8,44.6-26.6,64.3l-2.1,3.2l-62.4-62.5l-6.6-6.6c5.1-11.9,7.7-24.6,7.7-37.8c0-52.9-43-96-96-96s-96,43-96,96
				c0,52.9,43,96,96,96c13.1,0,25.8-2.6,37.7-7.7l68,68l1,1L354.4,408.8z M306.4,206c-19.5-19.5-48.6-25.4-74.1-15l-10.5,4.3
				l44.5,44.5l-4.8,17.9l-17.9,4.8L199.1,218l-4.3,10.5c-10.4,25.5-4.5,54.6,15,74.1c16.3,16.3,39.7,23.2,62.1,18.6l4.9,4.9
				c-8.3,2.8-17.1,4.3-26.1,4.3c-44.6,0-81-36.3-81-81c0-44.6,36.3-81,81-81s81,36.3,81,81c0,9-1.5,17.8-4.3,26.2l-3.4-3.4
				C330.3,248.8,323.6,223.3,306.4,206z M495,452.4l-33.7-33.7l-34.6,9.4l-9.4,34.6l33.7,33.7c-16.7,2.8-34-2.6-46.4-14.9
				c-11.4-11.4-16.9-27.5-15.3-43.2c0.1-0.6,0.1-1.2,0.2-1.8c0-0.3,0.1-0.6,0.1-0.9c0.1-0.9,0.3-1.8,0.5-2.6c0-0.2,0.1-0.4,0.1-0.6
				c0.2-0.9,0.4-1.8,0.7-2.7c0-0.1,0.1-0.3,0.1-0.4c0.2-0.9,0.5-1.7,0.8-2.6c1-2.1,6.7-13.7,15.1-22.1l-10.6-10.6
				c-5.6,5.6-10.2,12.3-13.3,17.5l-49.3-49.3l-42.3-42.3h0l-15.1-15.1l-4.2,1.2c-18.5,5.1-38.3-0.2-51.8-13.7
				c-12.3-12.3-17.7-29.6-14.9-46.4l33.7,33.7l34.6-9.4l9.4-34.6l-33.7-33.7c16.7-2.8,34,2.6,46.4,14.9
				c14.4,14.4,19.3,36.1,12.6,55.3l-1.3,3.8c-2.2,3.8-5.6,9.1-9.8,13.3l10.6,10.6c3.9-3.9,7.3-8.5,9.8-12.4L424,393.5l4.2-1.2
				c1.1-0.3,2.3-0.6,3.5-0.8c0.2,0,0.4-0.1,0.6-0.1c0.4-0.1,0.7-0.1,1.1-0.2c0.3-0.1,0.6-0.1,0.9-0.1c0.3,0,0.5-0.1,0.8-0.1
				c0.3,0,0.6-0.1,0.9-0.1c0.3,0,0.6-0.1,0.9-0.1c0.2,0,0.4,0,0.6-0.1c0.4,0,0.8-0.1,1.1-0.1c0.1,0,0.1,0,0.2,0
				c15.2-1,30.3,4.5,41.2,15.5C492.4,418.3,497.7,435.6,495,452.4z"/>
			
				<rect x="310.5" y="304.5" transform="matrix(0.7071 -0.7071 0.7071 0.7071 -127.6057 316.3036)" class="st0" width="15" height="15.4"/>
			
				<rect x="346.9" y="323.3" transform="matrix(0.7071 -0.7071 0.7071 0.7071 -142.6839 352.691)" class="st0" width="15" height="50.5"/>
			<path class="st0" d="M287.6,382.3l4,14.4c6.3-1.7,12.5-3.9,18.5-6.5l-5.9-13.8C298.8,378.8,293.2,380.7,287.6,382.3z"/>
			<path class="st0" d="M250.8,387.3c-75.5,0-136.9-61.4-136.9-136.9c0-7.8,0.7-15.6,2-23.2l-14.8-2.5c-1.4,8.4-2.2,17.1-2.2,25.7
				c0,83.7,68.1,151.9,151.9,151.9c4.9,0,9.9-0.2,14.8-0.7l-1.4-14.9C259.7,387.1,255.2,387.3,250.8,387.3z"/>
			<path class="st0" d="M156.1,151.6l-10.4-10.8c-4.3,4.1-8.4,8.5-12.1,13.1l11.6,9.5C148.6,159.3,152.2,155.3,156.1,151.6z"/>
			<path class="st0" d="M250.8,113.6c16.1,0,31.8,2.8,46.8,8.2l5.1-14.1c-16.6-6-34.1-9.1-51.9-9.1c-33.4,0-65,10.6-91.6,30.7l9,12
				C192.2,123.1,220.7,113.6,250.8,113.6z"/>
		</g>
	</g>
</g>
</svg>
