<svg width="200" height="200" xmlns="http://www.w3.org/2000/svg">
 <g id="Layer_1">
  <title>Layer 1</title>
  <g id="svg_42">
   <g transform="matrix(0.390624 0 0 0.390624 0 0)" id="svg_24">
    <g id="svg_25">
     <path fill="#999999" id="svg_26" d="m507.2404,5.49254c-7.811,-7.811 -20.475,-7.811 -28.285,0l-472,472c-7.811,7.811 -7.811,20.474 0,28.284c3.905,3.906 9.024,5.858 14.142,5.858s10.237,-1.953 14.143,-5.858l472,-472c7.811,-7.81 7.811,-20.473 0,-28.284z"/>
    </g>
   </g>
   <g transform="matrix(0.390624 0 0 0.390624 0 0)" id="svg_27"/>
   <g transform="matrix(0.390624 0 0 0.390624 0 0)" id="svg_28"/>
   <g transform="matrix(0.390624 0 0 0.390624 0 0)" id="svg_29"/>
   <g transform="matrix(0.390624 0 0 0.390624 0 0)" id="svg_30"/>
   <g transform="matrix(0.390624 0 0 0.390624 0 0)" id="svg_31"/>
   <g transform="matrix(0.390624 0 0 0.390624 0 0)" id="svg_32"/>
   <g transform="matrix(0.390624 0 0 0.390624 0 0)" id="svg_33"/>
   <g transform="matrix(0.390624 0 0 0.390624 0 0)" id="svg_34"/>
   <g transform="matrix(0.390624 0 0 0.390624 0 0)" id="svg_35"/>
   <g transform="matrix(0.390624 0 0 0.390624 0 0)" id="svg_36"/>
   <g transform="matrix(0.390624 0 0 0.390624 0 0)" id="svg_37"/>
   <g transform="matrix(0.390624 0 0 0.390624 0 0)" id="svg_38"/>
   <g transform="matrix(0.390624 0 0 0.390624 0 0)" id="svg_39"/>
   <g transform="matrix(0.390624 0 0 0.390624 0 0)" id="svg_40"/>
   <g transform="matrix(0.390624 0 0 0.390624 0 0)" id="svg_41"/>
  </g>
 </g>

</svg>